<svg xmlns="http://www.w3.org/2000/svg" version="1.1" xmlns:xlink="http://www.w3.org/1999/xlink" width="512" height="512" x="0" y="0" viewBox="0 0 46 58" style="enable-background:new 0 0 512 512" xml:space="preserve" class=""><g><g fill="none" fill-rule="nonzero"><path fill="#e94949" d="M23.43 0H23C10.297 0 0 10.297 0 23c0 18.8 18.96 32.5 22.45 34.83.163.109.354.168.55.17a.991.991 0 0 0 .55-.17c3.26-2.18 19.9-14.22 22.19-31C47.62 13.05 37.34.26 23.43 0z" opacity="1" data-original="#c03a2b" class=""></path><path fill="#e94949" d="M23 0v58a1.016 1.016 0 0 1-.55-.17C18.96 55.5 0 41.8 0 23 0 10.297 10.297 0 23 0z" opacity="1" data-original="#e64c3c" class=""></path><circle cx="23" cy="23" r="19" fill="#ffffff" opacity="1" data-original="#ecf0f1" class=""></circle><path fill="#ffffff" d="m29 46-6 6v-6z" opacity="1" data-original="#e57e25" class=""></path><path fill="#ffffff" d="M23 46v6l-6-6z" opacity="1" data-original="#f29c1f" class=""></path><path fill="#ffffff" d="M39.32 13.27c-7.352-6.098-18.138-5.597-24.892 1.158S7.172 31.968 13.27 39.32a19 19 0 1 1 26.05-26.05z" opacity="1" data-original="#ffffff" class=""></path><path fill="#e94949" d="M36.89 23.9c-.61.49-1.21.99-1.81 1.49-1.67 1.39-3.35 2.79-5.03 4.18-.32.27-.34.38-.21.77.09.26.19.51.28.77.12.37.25.75.39 1.12a.268.268 0 0 1-.3.36L24 31.22V37a1 1 0 0 1-1 1V8c.1.001.189.06.23.15.82 1.67 1.75 3.55 2.25 4.54a.481.481 0 0 0 .78.24c.21-.12 1.01-.6 1.93-1.14a.262.262 0 0 1 .39.28c-.45 2.34-.95 4.96-1.2 6.27-.08.43-.16.86-.24 1.28-.062.234.04.48.25.6.209.102.46.048.61-.13.04-.05.08-.09.11-.13a657.86 657.86 0 0 0 2.9-3.19c.15-.17.18-.12.26.06.21.54.44 1.08.67 1.61a.494.494 0 0 0 .67.35c.8-.18 1.6-.36 2.4-.53.38-.08.76-.17 1.15-.25a.272.272 0 0 1 .31.35l-1.22 3.88a.542.542 0 0 0 .32.78c.43.2.85.41 1.28.61.18.08.21.13.04.27z" opacity="1" data-original="#c03a2b" class=""></path><path fill="#e94949" d="M23 8v30a1 1 0 0 1-1-1v-5.78l-6.21 1.37a.268.268 0 0 1-.3-.36c.14-.37.27-.75.39-1.12.09-.26.19-.51.28-.77.13-.39.11-.5-.21-.77-1.68-1.39-3.36-2.79-5.03-4.18-.6-.5-1.2-1-1.81-1.49-.17-.14-.14-.19.04-.27.43-.2.85-.41 1.28-.61a.542.542 0 0 0 .32-.78l-1.22-3.88a.272.272 0 0 1 .31-.35c.39.08.77.17 1.15.25.8.17 1.6.35 2.4.53a.494.494 0 0 0 .67-.35c.23-.53.46-1.07.67-1.61.08-.18.11-.23.26-.06.96 1.07 1.927 2.133 2.9 3.19.03.04.07.08.11.13.15.178.401.232.61.13a.535.535 0 0 0 .25-.6c-.08-.42-.16-.85-.24-1.28-.25-1.31-.75-3.93-1.2-6.27a.262.262 0 0 1 .39-.28c.92.54 1.72 1.02 1.93 1.14a.481.481 0 0 0 .78-.24c.5-.99 1.43-2.87 2.25-4.54A.257.257 0 0 1 23 8z" opacity="1" data-original="#e64c3c" class=""></path></g></g></svg>