<svg width="290" height="64" viewBox="0 0 290 64" fill="none" xmlns="http://www.w3.org/2000/svg">
<g clip-path="url(#clip0_2132_3930)">
<path d="M83.6441 15.1217C77.3272 15.1217 72.2251 20.6872 72.2251 27.5232C72.2251 34.2986 77.3272 39.8641 83.6441 39.8641C89.9003 39.8641 95.0024 34.2986 95.0024 27.5232C95.0024 20.6872 89.9003 15.1217 83.6441 15.1217ZM67.3052 54.6854V10.2216H72.2251V15.1217C75.2013 12.0969 79.2101 10.2216 83.6441 10.2216C92.6336 10.2216 99.9223 17.9649 99.9223 27.5232C99.9223 37.0209 92.6336 44.7642 83.6441 44.7642C79.2101 44.7642 75.2013 42.8889 72.2251 39.8641V54.6854H67.3052Z" fill="black"/>
<path d="M105.492 44.7642V10.2216H110.412V14.5167C113.084 11.6735 116.607 10.2216 119.948 10.2216C124.2 10.2216 128.087 12.5809 129.909 16.4526C132.764 12.3389 137.016 10.2216 141.085 10.2216C148.799 10.2216 152.626 16.876 152.626 23.833V44.7642H147.706V23.833C147.706 19.7193 145.944 15.1217 141.085 15.1217C136.469 15.1217 131.488 19.6588 131.488 28.0676V44.7642H126.568V23.833C126.568 19.7193 124.807 15.1217 119.948 15.1217C115.332 15.1217 110.412 19.6588 110.412 28.0676V44.7642H105.492Z" fill="black"/>
<path d="M175.156 39.8641C181.351 39.8641 186.453 34.2986 186.453 27.4627C186.453 20.6872 181.351 15.1217 175.156 15.1217C168.839 15.1217 163.737 20.6872 163.737 27.4627C163.737 34.2986 168.839 39.8641 175.156 39.8641ZM191.434 44.7642H186.453V39.8641C183.538 42.8284 179.529 44.7642 175.156 44.7642C166.166 44.7642 158.817 37.0209 158.817 27.4627C158.817 17.9649 166.166 10.2216 175.156 10.2216C179.529 10.2216 183.538 12.0969 186.453 15.1217V10.2216H191.434V44.7642Z" fill="black"/>
<path d="M206.705 44.7642V15.1217H197.047V10.2216H206.705V0.300415H211.625V10.2216H221.282V15.1217H211.625V44.7642H206.705Z" fill="black"/>
<path d="M249.034 34.1171H254.501C252.071 40.3481 246.24 44.7642 239.498 44.7642C230.448 44.7642 223.159 37.0209 223.159 27.4627C223.159 17.9649 230.448 10.2216 239.498 10.2216C246.24 10.2216 252.071 14.5772 254.501 20.8687H249.034C247.03 17.4205 243.507 15.1217 239.498 15.1217C233.181 15.1217 228.079 20.6872 228.079 27.4627C228.079 34.2986 233.181 39.8641 239.498 39.8641C243.507 39.8641 247.03 37.5653 249.034 34.1171Z" fill="black"/>
<path d="M260.616 44.7642V0.300415H265.536V15.0612C268.694 11.855 272.885 10.2216 277.016 10.2216C284.972 10.2216 289.953 16.0896 289.953 23.833V44.7642H285.033V23.833C285.033 18.8724 282.239 15.1217 277.016 15.1217C271.428 15.1217 265.536 19.6588 265.536 28.0676V44.7642H260.616Z" fill="black"/>
<path d="M0.988701 8.29442C0.377313 8.64378 0 9.29396 0 9.99813V26.035C0 26.7392 0.377312 27.3893 0.9887 27.7387L16.025 36.3309V19.1553C16.025 18.4511 16.4024 17.801 17.0137 17.4516L32.0501 8.85939L16.9986 0.25854C16.3953 -0.0861795 15.6548 -0.0861804 15.0515 0.258539L0.988701 8.29442Z" fill="black"/>
<path d="M0 63.8024V46.6268C0 45.9226 0.377312 45.2724 0.9887 44.9231L16.025 36.3309V53.5065C16.025 54.2106 15.6477 54.8608 15.0363 55.2102L0 63.8024Z" fill="black"/>
<path d="M47.0864 36.8959C47.6978 36.5465 48.0751 35.8963 48.0751 35.1922V19.1553C48.0751 18.4511 47.6978 17.801 47.0864 17.4516L32.0501 8.85939L32.0501 26.035C32.0501 26.7392 31.6728 27.3893 31.0614 27.7387L16.025 36.3309L31.0765 44.9317C31.6798 45.2765 32.4204 45.2765 33.0236 44.9317L47.0864 36.8959Z" fill="#E94949"/>
</g>
<defs>
<clipPath id="clip0_2132_3930">
<rect width="289.953" height="64" fill="white"/>
</clipPath>
</defs>
</svg>
