<svg xmlns="http://www.w3.org/2000/svg" version="1.1" xmlns:xlink="http://www.w3.org/1999/xlink" width="512" height="512" x="0" y="0" viewBox="0 0 64 64" style="enable-background:new 0 0 512 512" xml:space="preserve" class=""><g><path d="M55 47a7.9 7.9 0 0 0-3.335.74 4.949 4.949 0 0 0-2.055-2.533 5.006 5.006 0 0 0-6.875 1.652l-5.221 8.53a5 5 0 0 0 8.528 5.221l1.573-2.568A7.994 7.994 0 1 0 55 47ZM44.336 59.565a3 3 0 1 1-5.116-3.131l2.089-3.413 5.116 3.133Zm3.133-5.116-5.117-3.133 2.089-3.416a3 3 0 1 1 5.117 3.133Zm1.59 1.234 2.205-3.6a4.926 4.926 0 0 0 .7-2.234A5.861 5.861 0 0 1 55 49a5.948 5.948 0 0 1 .92.078l-3.738 11.214a5.958 5.958 0 0 1-3.123-4.609ZM55 61a6.074 6.074 0 0 1-.92-.077l3.739-11.217A6 6 0 0 1 55 61ZM42 20.8h4a1 1 0 0 0 1-1v-6.3a1 1 0 0 0-1-1h-4a1 1 0 0 0-1 1v6.3a1 1 0 0 0 1 1Zm1-6.3h2v4.3h-2ZM50 7.25a1 1 0 0 0-1 1V19.8a1 1 0 0 0 1 1h4a1 1 0 0 0 1-1V8.25a1 1 0 0 0-1-1Zm3 11.55h-2V9.25h2ZM62 2h-4a1 1 0 0 0-1 1v16.8a1 1 0 0 0 1 1h4a1 1 0 0 0 1-1V3a1 1 0 0 0-1-1Zm-1 16.8h-2V4h2ZM41 23h22v2H41zM38 49h-4.515L20.86 33.006a3.531 3.531 0 1 0-1.569 1.24l4.823 6.111 1.649 18.963a1.546 1.546 0 0 1-1.54 1.68 1.553 1.553 0 0 1-1.533-1.337l-2.7-19.8A1 1 0 0 0 19 39h-2a1 1 0 0 0-.991.865l-2.7 19.8A1.553 1.553 0 0 1 11.777 61a1.546 1.546 0 0 1-1.54-1.68L12 39V23a1 1 0 0 0-1.923-.385L5.675 33.18a1.33 1.33 0 0 1-1.23.82 1.332 1.332 0 0 1-1.237-1.827l5.211-13.03A4.978 4.978 0 0 1 13.062 16h9.876a4.975 4.975 0 0 1 4.642 3.143l5.212 13.03A1.332 1.332 0 0 1 31.555 34a1.33 1.33 0 0 1-1.23-.82l-4.4-10.565A1 1 0 0 0 24 23v12h2v-7l2.479 5.949a3.332 3.332 0 0 0 6.17-2.518L29.437 18.4a6.967 6.967 0 0 0-6.5-4.4h-1.35a7 7 0 1 0-7.174 0h-1.351a6.969 6.969 0 0 0-6.5 4.4L1.351 31.431a3.332 3.332 0 0 0 6.17 2.518L10 28v10.916l-1.755 20.23a3.546 3.546 0 0 0 7.046.787L17.873 41h.254l2.582 18.933a3.546 3.546 0 0 0 7.046-.787L26.37 43.214l5.845 7.405A1 1 0 0 0 33 51h5ZM18 32.5a1.5 1.5 0 1 1 1.5-1.5 1.5 1.5 0 0 1-1.5 1.5ZM13 8a5 5 0 1 1 5 5 5.006 5.006 0 0 1-5-5ZM34.515 6h5.148a3.5 3.5 0 1 0 0-2H34a1 1 0 0 0-.814.419l-5 7 1.628 1.162ZM43 3.5A1.5 1.5 0 1 1 41.5 5 1.5 1.5 0 0 1 43 3.5Z" fill="#871313" opacity="1" data-original="#000000" class=""></path></g></svg>