<svg xmlns="http://www.w3.org/2000/svg" xmlns:xlink="http://www.w3.org/1999/xlink" id="genome-canada-logo-new" width="236.503" height="120.623" viewBox="0 0 236.503 120.623"><defs><clipPath id="clip-path"><rect id="Rectangle_4230" data-name="Rectangle 4230" width="236.503" height="120.623" fill="none"></rect></clipPath></defs><g id="Group_24165" data-name="Group 24165" clip-path="url(#clip-path)"><path id="Path_19817" data-name="Path 19817" d="M29.416,111.882c-.989-.333-3.066-.938-5.215-1.826-5.667-2.328-10.946-5.7-10.815-11.33.136-5.38,5.041-8.726,13.948-10.478C37.1,86.34,51.383,84.892,58.6,81.21c7.124-3.2,6.444-11.447,2.152-15.31-.392-.376-.683-.659-.909-.56-.3.125-.238.379-.11.784a6.287,6.287,0,0,1-.128,5.006c-3.495,6.143-23.036,6.111-40.045,9.385C5.513,83.226-.317,89.915.013,97.241c.334,7.619,7.606,13.351,17.723,14.926a53.3,53.3,0,0,0,11.467.624c.514-.077.664-.25.648-.5-.014-.208-.1-.3-.435-.4" fill="#e1001e"></path><path id="Path_19818" data-name="Path 19818" d="M9.5,79.115a83.178,83.178,0,0,1,14.881-3.378c1.035-.165,2.056-.344,2.65-.464a.491.491,0,0,0,.435-.322c.09-.3-.07-.491-.589-.621-.624-.158-1.643-.318-2.442-.523C16.5,71.938,15.372,69.6,15.33,67.23a4.571,4.571,0,0,1,2.263-3.916c2.2-1.538,5.956-2.378,8.123-2.837,15.212-3.2,38.153-3.7,38.153-24.278,0-8.217-5.1-13.447-9.534-16.236a21.358,21.358,0,0,0-6.275-2.687v8.086a11.981,11.981,0,0,1,4.782,9.461c0,6.99-2.815,14.609-18.741,17.913-10.019,2.079-17.236,3.521-22.33,5.681-5.122,2.172-8.318,6.147-8.721,9.842-.368,3.335.467,7.817,6.452,10.856" fill="#001750"></path><path id="Path_19819" data-name="Path 19819" d="M59.535,85.006a55.374,55.374,0,0,1-13.076,3.938c-1.552.3-2.632.474-3.29.6-.528.107-.659.344-.565.611.072.2.237.261.7.371.739.175,1.909.381,3.325.783,3.5,1.072,5.758,2.536,7.022,3.973a7.682,7.682,0,0,1,1.9,5.265,9.37,9.37,0,0,1-2.3,6.318q-3.135,3.416-10.378,5.6a48.237,48.237,0,0,1-9.422,1.714v6.444c9.6-.533,19.04-2.877,24.319-6.318q9.077-5.883,9.085-15.705a15.6,15.6,0,0,0-3.244-9.982,15.932,15.932,0,0,0-4.071-3.612" fill="#001750"></path><path id="Path_19820" data-name="Path 19820" d="M17.781,52.125c3.242-.976,11.837-2.791,11.837-2.8.216-.034.426-.082.453-.3a.365.365,0,0,0-.285-.424,20.208,20.208,0,0,1-6.127-2.586c-3.847-2.53-6.835-6.2-6.643-11.573.242-7.158,6.142-11.677,12.938-13.772,6.161-1.891,11.77-2.728,15.284-4.986C51.908,11.4,51.209,4.311,47.474.739c-.517-.491-.853-.845-1.13-.709-.251.131-.216.429-.069.8a6.173,6.173,0,0,1,.106,4.954C44.534,9.39,34.392,10.67,26.755,12.3,16.56,14.482,11.092,17.78,7.053,22.757A19.053,19.053,0,0,0,3.137,34.442c0,9.835,7.526,15,14.644,17.683" fill="#e1001e"></path><path id="Path_19821" data-name="Path 19821" d="M116.275,73.047c0,1.84.075,3.684.12,5.524l-.2.32a26.787,26.787,0,0,1-9.446,1.765,19.8,19.8,0,0,1-5.366-.68,12.63,12.63,0,0,1-6.844-4.444,14.864,14.864,0,0,1-2.8-9.248,17.846,17.846,0,0,1,2.039-8.449c3.165-5.366,8.174-6.643,12.735-6.643a20.143,20.143,0,0,1,8.526,1.836l.2.238c-.323,2.407-.4,3.044-.6,5.529l-.32.12c-1.882-1.245-3.687-2.442-6.729-2.442-5.039,0-8.446,3.442-8.446,9.768,0,3,1.12,8.931,7.321,8.931a12.588,12.588,0,0,0,3-.443,55.571,55.571,0,0,0-.315-8.528l.2-.237,6.8-.126.2.243c-.035,2.039-.075,4.044-.075,6.046Z" fill="#001750"></path><path id="Path_19822" data-name="Path 19822" d="M158.957,80.045c-3.055,0-3.7.04-6.222.115l-.23-.23c0-1.295.038-2.636.038-3.935,0-1.45-.038-6.678-.115-7.939-.112-1.378-.307-3.628-2.407-3.628a5.21,5.21,0,0,0-2.935,1.184c.04,6.832.074,8.323.3,14.2l-.224.229c-3.05,0-3.628,0-6.374.115l-.232-.23c.04-2.45.077-4.889.077-7.328a106.692,106.692,0,0,0-.533-11.954l.229-.264c2.861-.387,3.509-.5,6.452-1.115l.381.267-.074,2.1c1.754-1.029,3.777-2.25,6.1-2.25a5.225,5.225,0,0,1,4.734,2.292c.957,1.563.995,3.317,1.032,6.988v2.978c.075,3.743.075,4.809.264,8.171Z" fill="#001750"></path><path id="Path_19823" data-name="Path 19823" d="M175.643,69.885c0,3.135-.423,6.609-3.588,6.609a3.092,3.092,0,0,1-2.138-.877c-.65-.648-1.378-1.952-1.378-5.655,0-1.1,0-3.551.765-4.886a3.112,3.112,0,0,1,5.228-.534c.919,1.107,1.111,3.282,1.111,5.343m6.6.04c0-1.49,0-7.675-5.345-9.773a13.681,13.681,0,0,0-4.655-.728c-6.649,0-10.386,3.551-10.386,10.57a12.187,12.187,0,0,0,1.791,7c.992,1.485,2.866,3.548,8.328,3.548,8.092,0,10.267-4.884,10.267-10.613" fill="#001750"></path><path id="Path_19824" data-name="Path 19824" d="M214.7,80.045c-2.671,0-3.506,0-6.374.115l-.232-.23c.037-1.149.077-6.835.112-8.133,0-.728.04-1.451.04-2.173,0-3.287-.344-5.351-2.52-5.351a4.694,4.694,0,0,0-2.634.957l.038,3.858V70.5c.042,4.62.074,5.689.3,9.315l-.227.229c-2.631,0-3.433,0-6.334.152l-.229-.267c.08-3.1.117-3.935.117-9.472,0-3.281-.08-5.993-2.447-5.993a4.679,4.679,0,0,0-2.634,1.072c.04,6.641.077,8.4.344,14.279l-.229.229c-3.17,0-4.01.04-6.455.115l-.186-.23c0-2.172.034-4.39.034-6.568a102,102,0,0,0-.533-12.714l.229-.264c2.672-.387,3.511-.539,6.489-1.115l.347.352v2.136c1.754-1.227,3.4-2.37,5.918-2.37a4.625,4.625,0,0,1,4.54,2.484,11.221,11.221,0,0,1,6.759-2.484,5.619,5.619,0,0,1,4.732,2.175c1.111,1.608,1.069,3.975,1.034,6.537v2.858c0,4.313.035,5.305.227,8.859Z" fill="#001750"></path><path id="Path_19825" data-name="Path 19825" d="M223.941,67.6a4.549,4.549,0,0,1,1.834-3.7,2.931,2.931,0,0,1,3.967.914,4.65,4.65,0,0,1,.576,2.636Zm11.57,6.834a11.667,11.667,0,0,1-5.956,1.641c-2.292,0-3.86-.726-4.772-2.1a5.4,5.4,0,0,1-.842-2.328l12.33-.229.232-.266a22.157,22.157,0,0,0-.611-5.687c-1.338-4.509-4.276-5.422-5.574-5.729a9.751,9.751,0,0,0-2.714-.347c-6,0-9.963,3.934-9.963,10.542a12.565,12.565,0,0,0,.923,5c2.21,5.159,7.406,5.616,10.146,5.616a14.739,14.739,0,0,0,6.569-1.376l.232-.3.267-4.313Z" fill="#001750"></path><path id="Path_19826" data-name="Path 19826" d="M137.764,71.146a17.737,17.737,0,0,0-.571-5.375c-.458-1.141-2.561-4.073-7.533-2.21a.381.381,0,0,0-.2.12c-.072.107.048.187.048.187a3.449,3.449,0,0,1,2.074,3.575l-6.374.152a5.575,5.575,0,0,1,.621-3.183,8.2,8.2,0,0,1,6.044-4.242,8.41,8.41,0,0,1,1.858-.112c.024,0,.189-.077.026-.17a.962.962,0,0,0-.391-.152,15.383,15.383,0,0,0-4.493-.52c-5.993,0-9.962,4.1-9.962,10.709a12.656,12.656,0,0,0,.912,5c2.218,5.158,7.406,5.611,10.159,5.611a14.783,14.783,0,0,0,6.567-1.367l.229-.307.266-4.316-.266-.115a11.673,11.673,0,0,1-5.961,1.643c-2.287,0-3.852-.728-4.767-2.1a5.335,5.335,0,0,1-.842-2.327l12.335-.227Z" fill="#001750"></path><path id="Path_19827" data-name="Path 19827" d="M112.226,110.882c-.456.269-.917.536-1.37.762a14.63,14.63,0,0,1-6.188,1.261c-8.55,0-12.938-6.419-12.938-13.937,0-7.062,4.348-14.162,13.17-14.162a13.871,13.871,0,0,1,7.179,1.677l.187.3a9.8,9.8,0,0,0-.307,2.026l-.264.195a10.808,10.808,0,0,0-6.795-2.1c-7.6,0-10.541,6.486-10.541,12.061,0,6.643,4.273,11.8,10.73,11.8a11.154,11.154,0,0,0,4.239-.845,10.2,10.2,0,0,0,2.978-1.869l.307.192a10.38,10.38,0,0,0-.19,2.25Z" fill="#001750"></path><path id="Path_19828" data-name="Path 19828" d="M125.593,101.032V108.7a7.028,7.028,0,0,1-5,2.064,4.253,4.253,0,0,1-4.508-4.316,4.21,4.21,0,0,1,1.8-3.359c1.067-.8,2.285-1.109,5.647-1.755Zm-9.813-5.388.3.157a10.075,10.075,0,0,1,5.423-1.453c2.671,0,3.516,1.3,3.748,1.763a7.719,7.719,0,0,1,.341,2.514v.5l-3.361.5c-2.136.344-4.847.8-6.564,2.327a6.146,6.146,0,0,0-1.989,4.626c0,3.812,2.677,6.217,6.489,6.217a8.948,8.948,0,0,0,5.425-1.9l.038,1.333.264.229,2.028-.112.23-.269a89.873,89.873,0,0,1-.23-9.776V99.92c0-3.74,0-4.577-1.106-5.8-.88-.989-2.37-1.794-5.084-1.794a13.82,13.82,0,0,0-5.652,1.258l-.186.264Z" fill="#001750"></path><path id="Path_19829" data-name="Path 19829" d="M135.063,112.335l-2.258.075-.187-.23c.04-2.1.078-3.055.078-4.7,0-1.983-.038-4.007-.078-5.99a77.885,77.885,0,0,0-.349-8.283l.2-.267,2.33-.389.224.229-.149,1.989a12.6,12.6,0,0,1,6.91-2.445,5.966,5.966,0,0,1,4.586,1.8c1.37,1.493,1.37,3.361,1.41,6.265l.075,3.892c.04,4.007.077,4.623.229,7.827l-.229.232-2.291.075-.189-.264c.038-1.794.075-2.792.075-4.319s-.075-6.873-.155-8.9a5.3,5.3,0,0,0-.914-3.205,4.312,4.312,0,0,0-3.245-1.306,10.3,10.3,0,0,0-6.187,2.562c.04,6.457.074,7.944.346,15.121Z" fill="#001750"></path><path id="Path_19830" data-name="Path 19830" d="M163.046,101.032V108.7a7.013,7.013,0,0,1-5,2.064,4.23,4.23,0,0,1-2.718-7.675c1.069-.8,2.3-1.109,5.656-1.755Zm-9.81-5.388.306.157a10.048,10.048,0,0,1,5.42-1.453c2.671,0,3.513,1.3,3.742,1.763a7.5,7.5,0,0,1,.342,2.514v.5l-3.358.5c-2.142.344-4.848.8-6.57,2.327a6.16,6.16,0,0,0-1.984,4.626c0,3.812,2.677,6.217,6.492,6.217a8.947,8.947,0,0,0,5.42-1.9l.041,1.333.268.229,2.027-.112.223-.269a92.277,92.277,0,0,1-.223-9.776V99.92c0-3.74,0-4.577-1.107-5.8-.88-.989-2.369-1.794-5.084-1.794a13.776,13.776,0,0,0-5.649,1.258l-.192.264Z" fill="#001750"></path><path id="Path_19831" data-name="Path 19831" d="M183.13,108.174a6.911,6.911,0,0,1-5.271,2.325c-4.236,0-6.528-3.474-6.528-7.79,0-2.135.575-5.652,4.2-7.288a13.47,13.47,0,0,1,5.42-.878c.954,0,1.375.035,2.026.075,0,3.434.114,8.891.149,12.293Zm.04,4.01.229.227a18.275,18.275,0,0,1,2.026-.075l.227-.192c-.307-6.148-.307-13.063-.307-19.592,0-3.431.04-6.867.08-10.347l-.232-.226c-1.183.269-1.375.3-2.335.458l-.264.232c.264,2.288.264,2.936.349,9.966-.725-.043-1.229-.043-1.719-.043-2.786,0-6.764.227-9.435,2.789a10.319,10.319,0,0,0-2.935,7.483c0,5.19,3.092,9.736,8.59,9.736a8.091,8.091,0,0,0,5.726-2.178Z" fill="#001750"></path><path id="Path_19832" data-name="Path 19832" d="M200.505,101.032V108.7a7.029,7.029,0,0,1-5,2.064,4.224,4.224,0,0,1-2.708-7.675c1.063-.8,2.287-1.109,5.646-1.755Zm-9.811-5.388.3.157a10.082,10.082,0,0,1,5.425-1.453c2.674,0,3.513,1.3,3.743,1.763a7.655,7.655,0,0,1,.344,2.514v.5l-3.362.5c-2.138.344-4.849.8-6.564,2.327a6.155,6.155,0,0,0-1.986,4.626c0,3.812,2.666,6.217,6.489,6.217a8.955,8.955,0,0,0,5.423-1.9l.037,1.333.267.229,2.02-.112.232-.269a91.353,91.353,0,0,1-.232-9.776V99.92c0-3.74,0-4.577-1.1-5.8-.877-.989-2.368-1.794-5.082-1.794a13.814,13.814,0,0,0-5.651,1.258l-.187.264Z" fill="#001750"></path></g></svg>